<svg fill="none" height="96" viewBox="0 0 96 96" width="96" xmlns="http://www.w3.org/2000/svg" xmlns:xlink="http://www.w3.org/1999/xlink"><clipPath id="a"><path d="m0 0h96v96h-96z"/></clipPath><g clip-path="url(#a)"><path d="m16.5297 6.19971h67.296c3.3089 0 6.4823 1.31437 8.8221 3.654 2.3399 2.33959 3.6545 5.51289 3.6548 8.82179v63.0847c0 2.0407-.8106 3.9978-2.2536 5.4407-1.443 1.443-3.4001 2.2537-5.4408 2.2537h-76.861c-2.04073 0-3.99784-.8107-5.44082-2.2537-1.44299-1.4429-2.25365-3.4-2.25365-5.4407v-63.0847c.00031-3.3089 1.31498-6.4822 3.65483-8.82179 2.33984-2.33963 5.51324-3.654 8.82214-3.654z" fill="#f5f6f9"/><path d="m16.5297 6.19971h67.296c3.3089 0 6.4823 1.31437 8.8221 3.654 2.3399 2.33959 3.6545 5.51289 3.6548 8.82179v9.1623h-92.24987v-9.1623c.00031-3.3089 1.31498-6.4822 3.65483-8.82179 2.33984-2.33963 5.51324-3.654 8.82214-3.654z" fill="#ff4438"/><path d="m40.5305 3.27271h-.0003c-1.0363 0-1.8764.84007-1.8764 1.87636v4.8374c0 1.03633.8401 1.87633 1.8764 1.87633h.0003c1.0363 0 1.8763-.84 1.8763-1.87633v-4.8374c0-1.03629-.84-1.87636-1.8763-1.87636zm20.875 0h-.0003c-1.0363 0-1.8764.84007-1.8764 1.87636v4.8374c0 1.03633.8401 1.87633 1.8764 1.87633h.0003c1.0363 0 1.8763-.84 1.8763-1.87633v-4.8374c0-1.03629-.84-1.87636-1.8763-1.87636zm20.873 0h-.0003c-1.0363 0-1.8763.84007-1.8763 1.87636v4.8374c0 1.03633.84 1.87633 1.8763 1.87633h.0003c1.0363 0 1.8764-.84 1.8764-1.87633v-4.8374c0-1.03629-.8401-1.87636-1.8764-1.87636z" fill="#ffd3cd"/><path d="m95.7471 64.8319-29.0479 24.387s1.4443-4.6366 1.7289-7.6101c.1805-1.888-.0673-3.5731.0501-6.2979.3298-7.6437 5.0861-9.1527 7.3516-10.0768 3.4745-1.417 8.7895.3704 12.0841.4724 1.3924.0431 6.6807.315 7.8332-.8746z" fill="#fff"/><path d="m18.3195 3.27271h-.0003c-1.0363 0-1.8763.84007-1.8763 1.87636v4.8374c0 1.03633.84 1.87633 1.8763 1.87633h.0003c1.0363 0 1.8764-.84 1.8764-1.87633v-4.8374c0-1.03629-.8401-1.87636-1.8764-1.87636z" fill="#ffd3cd"/><path d="m53.4546 48h4.3636c2.41 0 4.3637-1.9537 4.3637-4.3637 0-2.4099-1.9537-4.3636-4.3637-4.3636-2.4099 0-4.3636 1.9537-4.3636 4.3636zm-17.4546 0h4.3636c2.41 0 4.3637-1.9537 4.3637-4.3637 0-2.4099-1.9537-4.3636-4.3637-4.3636-2.4099 0-4.3636 1.9537-4.3636 4.3636zm-17.4546 0h4.3636c2.41 0 4.3637-1.9537 4.3637-4.3637 0-2.4099-1.9537-4.3636-4.3637-4.3636-2.4099 0-4.3636 1.9537-4.3636 4.3636zm52.3638 0h4.3636c2.41 0 4.3637-1.9537 4.3637-4.3637 0-2.4099-1.9537-4.3636-4.3637-4.3636s-4.3636 1.9537-4.3636 4.3636zm-17.4546 13.0909h4.3636c2.41 0 4.3637-1.9536 4.3637-4.3636s-1.9537-4.3637-4.3637-4.3637c-2.4099 0-4.3636 1.9537-4.3636 4.3637zm-17.4546 0h4.3636c2.41 0 4.3637-1.9536 4.3637-4.3636s-1.9537-4.3637-4.3637-4.3637c-2.4099 0-4.3636 1.9537-4.3636 4.3637zm-17.4546 0h4.3636c2.41 0 4.3637-1.9536 4.3637-4.3636s-1.9537-4.3637-4.3637-4.3637c-2.4099 0-4.3636 1.9537-4.3636 4.3637zm52.3638 0h4.3636c2.41 0 4.3637-1.9536 4.3637-4.3636s-1.9537-4.3637-4.3637-4.3637-4.3636 1.9537-4.3636 4.3637zm-17.4546 13.0909h4.3636c2.41 0 4.3637-1.9537 4.3637-4.3636 0-2.41-1.9537-4.3637-4.3637-4.3637-2.4099 0-4.3636 1.9537-4.3636 4.3637z" fill="#e3e4ea"/><path d="m36 74.1818h4.3636c2.41 0 4.3637-1.9537 4.3637-4.3636 0-2.41-1.9537-4.3637-4.3637-4.3637-2.4099 0-4.3636 1.9537-4.3636 4.3637z" fill="#0de298"/><path d="m18.5454 74.1818h4.3636c2.41 0 4.3637-1.9537 4.3637-4.3636 0-2.41-1.9537-4.3637-4.3637-4.3637-2.4099 0-4.3636 1.9537-4.3636 4.3637z" fill="#e3e4ea"/><path d="m31.6364 47.4545c0 3.136-.9126 6.0589-2.4867 8.5175l1.2699 6.0839-6.1674-1.2167c-2.4412 1.5414-5.3334 2.4335-8.434 2.4335-8.73616 0-15.8182-7.082-15.8182-15.8182 0-8.7361 7.08204-15.8181 15.8182-15.8181 8.7361 0 15.8182 7.082 15.8182 15.8181z" fill="#0de298"/><path clip-rule="evenodd" d="m25.185 41.7516c-.7047-.7046-1.8472-.7046-2.5519 0l-8.3654 8.3654-3.5179-3.518c-.7047-.7047-1.84718-.7047-2.55185-.0001-.70468.7047-.70469 1.8472-.00003 2.5518l4.79388 4.7941c.3384.3384.7974.5285 1.2759.5285.4786 0 .9375-.1901 1.2759-.5285l9.6414-9.6413c.7046-.7047.7046-1.8472 0-2.5519z" fill="#fff" fill-rule="evenodd"/></g></svg>