<svg fill="none" height="96" viewBox="0 0 96 96" width="96" xmlns="http://www.w3.org/2000/svg" xmlns:xlink="http://www.w3.org/1999/xlink"><clipPath id="a"><path d="m0 0h18v18h-18z" transform="translate(14 70)"/></clipPath><clipPath id="b"><path d="m0 0h28v28h-28z" transform="translate(6 34)"/></clipPath><clipPath id="c"><path d="m0 0h15v15h-15z" transform="translate(15.5 9.5)"/></clipPath><mask id="d" height="19" maskUnits="userSpaceOnUse" width="19" x="14" y="70"><path d="m23.0003 88.0006c4.9708 0 9.0003-4.0295 9.0003-9.0003 0-4.9707-4.0295-9.0003-9.0003-9.0003-4.9707 0-9.0003 4.0296-9.0003 9.0003 0 4.9708 4.0296 9.0003 9.0003 9.0003z" fill="#66d1d7"/></mask><mask id="e" height="16" maskUnits="userSpaceOnUse" width="16" x="15" y="9"><path d="m23.0003 24.5005c4.1423 0 7.5002-3.3579 7.5002-7.5002s-3.3579-7.5003-7.5002-7.5003-7.5003 3.358-7.5003 7.5003 3.358 7.5002 7.5003 7.5002z" fill="#00b3bd"/></mask><path d="m12 79c0-6.0751 4.9249-11 11-11h50c6.0751 0 11 4.9249 11 11s-4.9249 11-11 11h-50c-6.0751 0-11-4.9249-11-11z" fill="#b3e8eb"/><g clip-path="url(#a)"><path d="m23.0003 88.0006c4.9708 0 9.0003-4.0295 9.0003-9.0003 0-4.9707-4.0295-9.0003-9.0003-9.0003-4.9707 0-9.0003 4.0296-9.0003 9.0003 0 4.9708 4.0296 9.0003 9.0003 9.0003z" fill="#66d1d7"/><path d="m22.9997 88c1.7191.0003 3.4024-.4917 4.8507-1.4179 1.4484-.9261 2.6012-2.2476 3.3223-3.8083-.0162-.0569-.0331-.1133-.0525-.1689a1.048967 1.048967 0 0 0 -.2499-.4169c-.0922-.1135-.2056-.2078-.334-.2777-.1738-.1005-.361-.1755-.5561-.2227-.4169-.1114-.9458-.1943-1.6689-.2784-.5561-.0557-1.1957-.1114-1.891-.1664-.7509-.0557-2.447-.0835-3.3928-.0835s-2.6697.0278-3.42.0557c-.6331.0214-1.2645.077-1.8916.1664-.7231.0835-1.2514.167-1.6683.2783-.2048.0428-.4015.118-.5826.2227-.1285.0698-.242.1642-.3341.2777-.1113.1392-.1663.2784-.2498.4454-.0195.0557-.0369.1114-.0525.1683.7206 1.5606 1.8731 2.8821 3.3211 3.8083 1.4481.9262 3.1311 1.4182 4.85 1.4179z" fill="#ffc400"/><g mask="url(#d)"><rect fill="#00b3bd" height="1.74857" rx=".18" width="2.88" x="19.04" y="83.3843"/><path d="m20.0688 82.87h.822857v1.02857h-.822857z" fill="#fff"/><path clip-rule="evenodd" d="m27.9419 77.3671-.1159.0538c-.3606.1675-.5172.5957-.3497.9563l.4452.9585-.5941-1.1907-.1143.057c-.3558.1776-.5004.6099-.3228.9657l.4655.9331-.077-.0431c-.347-.1942-.7857-.0704-.98.2765l-.0624.1115 1.6281.9114 2.2774 4.8753 2.5962-1.1979-2.2212-4.2048.0004-.0002-.6645-1.3908-.0039.0019-.9695-2.0292-.1153.0551c-.3227.1542-.478.5174-.3813.8499zm1.142 2.439-.0075.0036-.325-.6997z" fill="#4b332c" fill-rule="evenodd"/></g><path d="m23.0021 79.9908c1.393 0 2.5222-1.1292 2.5222-2.5221 0-1.393-1.1292-2.5222-2.5222-2.5222-1.3929 0-2.5221 1.1292-2.5221 2.5222 0 1.3929 1.1292 2.5221 2.5221 2.5221z" fill="#4b332c"/><g fill="#fff"><path d="m21.0233 78.37c.276 0 .5181.184.592.45.0739.2659.316.45.5921.45h1.3159c.276 0 .5181-.1841.592-.45.0739-.266.316-.45.5921-.45h.6329l-.4649 1.2552c-.0482.1301-.1104.2522-.1845.3648h.0194l-.0663.1459c-.2337.514-.7462.8441-1.3109.8441h-.7556c-.5646 0-1.0772-.3301-1.3109-.8441l-.0663-.1459h.0194c-.0741-.1126-.1363-.2347-.1845-.3648l-.4649-1.2552zm.627-3.42h2.79l1.08 1.98h-4.95z"/><path d="m21.1099 74.995c1.08.072 3.57 3.105 4.05 4.05.24-.435.864-2.7239 0-3.6959-1.5548-1.7491-3.6-.6241-4.05-.3541z"/><path d="m24.7929 74.995c-1.08.072-3.57 3.105-4.05 4.05-.24-.435-.864-2.7239 0-3.6959 1.5548-1.7491 3.6-.6241 4.05-.3541z"/></g></g><path d="m4 48c0-8.8366 7.1634-16 16-16h56c8.8366 0 16 7.1634 16 16s-7.1634 16-16 16h-56c-8.8366 0-16-7.1634-16-16z" fill="#ffc400"/><g clip-path="url(#b)"><path d="m20.0596 62.001c7.7323 0 14.0005-6.2682 14.0005-14.0005s-6.2682-14.0005-14.0005-14.0005-14.00052 6.2682-14.00052 14.0005 6.26822 14.0005 14.00052 14.0005z" fill="#ffedb3"/><path d="m15.4286 49.3701c.9338 0 1.6907-.757 1.6907-1.6908s-.7569-1.6908-1.6907-1.6908-1.6908.757-1.6908 1.6908.757 1.6908 1.6908 1.6908z" fill="#773e39"/><path d="m23.419 49.4001c.5412 0 .98-.4388.98-.98 0-.5413-.4388-.98-.98-.98-.5413 0-.98.4387-.98.98 0 .5412.4387.98.98.98zm-6.5801 0c.5412 0 .98-.4388.98-.98 0-.5413-.4388-.98-.98-.98-.5413 0-.98.4387-.98.98 0 .5412.4387.98.98.98z" fill="#b3f4de"/><path d="m20.0034 49.5413c2.1668 0 3.9233-1.7565 3.9233-3.9233s-1.7565-3.9234-3.9233-3.9234-3.9233 1.7566-3.9233 3.9234 1.7565 3.9233 3.9233 3.9233z" fill="#ffb49c"/><path d="m16.0769 45.6179s2.7099-.1722 3.9274-2.305c0 0 1.9425 2.4772 3.9273 2.305 0 0 .1521-3.8357-3.9273-3.9273-4.0795-.0917-3.9274 3.9273-3.9274 3.9273z" fill="#773e39"/><path d="m20.0294 62c2.6742.0004 5.2926-.765 7.5456-2.2056 2.253-1.4407 4.0463-3.4964 5.1679-5.924-.0252-.0886-.0514-.1762-.0816-.2628-.077-.2436-.2102-.4658-.3887-.6486-.1434-.1764-.3199-.3232-.5196-.432-.2703-.1562-.5616-.2728-.865-.3464-.6485-.1732-1.4713-.3021-2.5961-.433-.865-.0866-1.8599-.1732-2.9415-.2588-1.1681-.0866-3.8065-.1299-5.2777-.1299-1.4713 0-4.1529.0433-5.3201.0866-.9847.0333-1.967.1197-2.9425.2588-1.1248.1299-1.94652.2598-2.59504.433-.3186.0665-.62455.1835-.90631.3464a1.736696 1.736696 0 0 0 -.51964.432c-.1732.2165-.25878.4331-.38869.6929-.03021.0866-.0574.1732-.08157.2618 1.12089 2.4275 2.91365 4.4832 5.16615 5.9239s4.8705 2.2062 7.5444 2.2057z" fill="#00b3bd"/><path d="m23.8387 51.4182v1.3818c0 1.0604-.8596 1.92-1.92 1.92h-3.86c-1.0604 0-1.92-.8596-1.92-1.92v-1.3923c1.2813-.0276 2.9041-.0488 3.9338-.0488.9938 0 2.5202.0197 3.7662.0593z" fill="#ffb49c"/><g fill="#282829"><circle cx="20.059" cy="56.6801" r=".56"/><circle cx="20.059" cy="58.5001" r=".56"/><ellipse cx="20.059" cy="60.3201" rx=".56" ry=".559999"/></g></g><circle cx="76" cy="48" fill="#fff" fill-opacity=".5" r="10"/><circle cx="76.0002" cy="48" fill="#fff" r="6.66667"/><path d="m12 17c0-6.0751 4.9249-11 11-11h50c6.0751 0 11 4.9249 11 11s-4.9249 11-11 11h-50c-6.0751 0-11-4.9249-11-11z" fill="#b3e8eb"/><g clip-path="url(#c)"><path d="m23.0003 24.5005c4.1423 0 7.5002-3.3579 7.5002-7.5002s-3.3579-7.5003-7.5002-7.5003-7.5003 3.358-7.5003 7.5003 3.358 7.5002 7.5003 7.5002z" fill="#66d1d7"/><path d="m22.9835 24.5c1.4326.0002 2.8353-.4098 4.0423-1.1816 1.2069-.7718 2.1676-1.8731 2.7685-3.1736-.0135-.0474-.0275-.0944-.0437-.1408a.876514.876514 0 0 0 -.2088-.3474c-.0766-.0945-.171-.1731-.2778-.2314-.1449-.0836-.3009-.1461-.4634-.1856-.348-.0928-.7882-.1618-1.3908-.232-.4634-.0464-.9964-.0928-1.5758-.1386-.6258-.0464-2.0392-.0696-2.8273-.0696-.7882 0-2.2248.0232-2.8506.0464-.5274.0179-1.0534.0642-1.5758.1386-.6026.0696-1.0428.1392-1.3902.232-.1707.0358-.3345.0984-.4855.1856a.934745.934745 0 0 0 -.2779.2314 1.92082 1.92082 0 0 0 -.2087.3712c-.0157.0464-.0302.0928-.0432.1402.6004 1.3004 1.5608 2.4016 2.7674 3.1734 1.2065.7718 2.6089 1.1819 4.0413 1.1818z" fill="#282829"/><g mask="url(#e)"><path clip-rule="evenodd" d="m31.6404 16.8082c-.4276.1096-.6854.5451-.5758.9728l.1373.5357c-.1805-.3061-.5509-.4643-.9085-.3619l.4887 1.7065c-.3541-.1544-.7764-.0264-.9814.3134l1.2653.7633 1.7946 6.8353 3.2886-.8188-1.8499-5.9365.0004-.0001-.4727-1.7643-.0175.0047-.4403-1.643c-.3215.0862-.5445.3566-.5857.6673l-.2764-1.0313c-.3463.0928-.5838.3889-.6184.7255z" fill="#ffeade" fill-rule="evenodd"/></g><path d="m20.9004 18.8h4.275l-2.1375 4.95z" fill="#fff"/><path d="m23.0002 17.8257c1.1608 0 2.1018-.941 2.1018-2.1018s-.941-2.1018-2.1018-2.1018-2.1018.941-2.1018 2.1018.941 2.1018 2.1018 2.1018z" fill="#ffeade"/><path d="m24.7319 12.8647h-3.158c-.3731 0-.6755.3024-.6755.6754s.3024.6754.6755.6754h3.158c.373 0 .6754-.3024.6754-.6754s-.3024-.6754-.6754-.6754z" fill="#614035"/><path d="m20.8985 13.5401h1.0212v1.49c0 .2576-.1023.5045-.2844.6867-.1821.1821-.4291.2844-.6866.2844h-.0508v-2.4611zm4.2036 2.46h-.0508c-.2575 0-.5045-.1023-.6866-.2844s-.2844-.4291-.2844-.6866v-1.4901h1.0207v2.46z" fill="#614035"/><path d="m22.4922 18.8h1.0161l-.0635 1.1516h-.8891z" fill="#ebb400"/><path d="m22.5599 19.9516-.6097 3.2516 1.0161 1.2067v.0804l.0339-.0402.0339.0402v-.0804l1.0161-1.2067-.6097-3.2516z" fill="#ffc400"/></g></svg>