<svg fill="none" height="96" viewBox="0 0 96 96" width="96" xmlns="http://www.w3.org/2000/svg"><path d="m23 38.5 1.5 30.5 43-15" stroke="#e5e8ed" stroke-dasharray="4 8" stroke-linecap="round" stroke-linejoin="round" stroke-width="4"/><circle cx="18.5" cy="77.5" fill="#0de298" r="14.5"/><circle cx="25" cy="25" fill="#00b3bd" r="21"/><path clip-rule="evenodd" d="m32.7995 17.8362c.9381 1.3518 1.5092 2.924 1.6575 4.5628v-.0559c.137 1.3974-.0388 2.8079-.5146 4.129s-1.2398 2.5198-2.2364 3.5089l-5.9046 5.9382c-.104.1048-.2277.188-.364.2448-.1362.0568-.2824.086-.43.086-.1477 0-.2938-.0292-.4301-.086s-.26-.14-.3639-.2448l-5.927-5.9382c-.9966-.9891-1.7606-2.1878-2.2364-3.5089s-.6516-2.7316-.5146-4.129c.1396-1.4067.5891-2.7651 1.3162-3.9774a9.57332 9.57332 0 0 1 2.8886-3.0344c1.3717-.9088 2.9558-1.4459 4.5974-1.5589 1.6415-.1129 3.2843.2022 4.7676.9145 1.4832.7123 2.7562 1.7975 3.6943 3.1493zm-7.8086 8.885c1.9416 0 3.5156-1.574 3.5156-3.5156 0-1.9417-1.574-3.5157-3.5156-3.5157s-3.5156 1.574-3.5156 3.5157c0 1.9416 1.574 3.5156 3.5156 3.5156z" fill="#fff" fill-rule="evenodd"/><circle cx="76" cy="49" fill="#ffc400" r="16"/><g fill="#fff"><path d="m75.3147 39.639c.3109-.5167 1.0599-.5167 1.3709 0l2.5959 4.3136c.1117.1856.2939.318.505.3668l4.9047 1.136c.5874.136.8189.8484.4236 1.3038l-3.3003 3.8019c-.142.1635-.2116.3777-.1929.5936l.4353 5.0156c.0522.6008-.5538 1.041-1.109.8058l-4.6357-1.9639c-.1995-.0845-.4247-.0845-.6242 0l-4.6356 1.9639c-.5552.2352-1.1612-.205-1.1091-.8058l.4353-5.0156c.0187-.2159-.0509-.4301-.1929-.5936l-3.3003-3.8019c-.3952-.4554-.1638-1.1678.4237-1.3038l4.9047-1.136c.211-.0488.3932-.1812.5049-.3668z"/><path clip-rule="evenodd" d="m23.7956 77.0599c.7127-.071 1.4896-.3205 1.9811-.5311a.74082.74082 0 0 1 .1394-.0442c.2078-.0442.3923-.0907.5561-.1383-.2919-3.3807-2.8267-6.1201-6.1089-6.7227-.072.0766-.1412.1527-.2077.227-.0411.0458-.0835.0937-.1262.142-.1216.1374-.2452.2771-.3449.3767-.1256.1257-.2839.3783-.4203.7422-.1321.3528-.2224.7538-.2496 1.1278-.028.3854.0154.6776.0899.8516.061.1424.1087.1499.1531.156.7678.1069 1.3661.3171 1.8254.6417.4716.3332.7411.7478.91 1.161.128.3133.206.654.2665.9189.0129.0562.025.1091.0366.1575.0751.3132.1434.5174.2493.6761.0549.0824.1572.1661.3724.2218.2233.0578.5216.0714.8778.036zm-12.2953-.0599c0-3.9522 3.057-7.1905 6.9355-7.4791-.2438.3084-.4349.6872-.5762 1.0644-.1801.4806-.303 1.0219-.3411 1.5452-.0372.5118.002 1.0718.2071 1.5508.2185.5105.6472.9569 1.3251 1.0513.6158.0857.9629.237 1.1666.381.1914.1352.3024.2961.3872.5035.0774.1894.1219.3817.1809.6365v.0001l.0001.0005c.0159.0689.033.1424.052.2217.0805.3356.1967.7636.4598 1.1583.314.471.7805.7217 1.2446.8418.4561.1181.9475.1218 1.4023.0765.8745-.087 1.7678-.3716 2.355-.6161.0497-.0109.0988-.0221.1473-.0335-.446 3.7164-3.6097 6.5971-7.4462 6.5971-.0963 0-.1922-.0018-.2876-.0054.191-.6431.5096-1.7224.7156-2.7753.1154-.5902.2022-1.2039.2048-1.7476.0023-.4982-.0613-1.1268-.4287-1.5732-.4701-.5713-1.1609-.7318-1.7936-.7312-.6344.0006-1.3414.1599-2.035.3756-1.0685.3322-2.2539.8492-3.2949 1.3031-.0606.0264-.1206.0526-.1801.0785-.2597-.7605-.4005-1.576-.4005-2.4245zm5.6962 7.2817c-1.9867-.4905-3.6615-1.7729-4.6704-3.493.0699-.0304.14-.061.2104-.0917 1.0281-.448 2.1032-.9166 3.0847-1.2218.6412-.1994 1.1797-.3075 1.591-.3079.4131-.0004.5683.1046.6339.1843l-.001-.0012s.0002.0002.0004.0007c.0032.0052.026.0431.0478.1407.0252.1133.0407.2699.0398.4729-.0019.4073-.0692.9158-.1769 1.4666-.1954.9987-.502 2.0317-.693 2.6751l-.0335.1128c-.011.0211-.0221.0419-.0332.0625z" fill-rule="evenodd"/></g></svg>